PathFileType  4	(X/Y/Z) C:\Users\antoi\Documents\MyRepositories\mobilecap\ResultsAnalysis
DataRate	CameraRate	NumFrames	NumMarkers	Units	OrigDataRate	OrigDataStartFrame	OrigNumFrames
100.0	100.0	4	51	mm	100.0	69	136
Frame#	Time	r_knee			r_shank_antsup			r_ankle			r_calc			r_5meta			r_toe			L_knee			L_shank_antsup			L_ankle			L_calc			L_5meta			L_toe			r_sh2			r_sh3			r_sh4			L_sh2			L_sh3			r_thigh1			r_thigh2			r_thigh3			r_thigh4			r_thigh5			L_thigh1			L_thigh2			L_thigh3			L_thigh4			r.ASIS			r.PSIS			L.ASIS			L.PSIS			C7			R_Shoulder			L_Shoulder			R_Sternum			L_Sternum			R_humerus			R_elbow_med			R_elbow_lat			R_forearm			R_wrist_radius			R_wrist_ulna			L_humerus			L_elbow_med			L_elbow_lat			L_forearm			L_wrist_radius			L_wrist_ulna			R_HJC			L_HJC			R_HJC_reg			L_HJC_reg			
		X1	Y1	Z1	X2	Y2	Z2	X3	Y3	Z3	X4	Y4	Z4	X5	Y5	Z5	X6	Y6	Z6	X7	Y7	Z7	X8	Y8	Z8	X9	Y9	Z9	X10	Y10	Z10	X11	Y11	Z11	X12	Y12	Z12	X13	Y13	Z13	X14	Y14	Z14	X15	Y15	Z15	X16	Y16	Z16	X17	Y17	Z17	X18	Y18	Z18	X19	Y19	Z19	X20	Y20	Z20	X21	Y21	Z21	X22	Y22	Z22	X23	Y23	Z23	X24	Y24	Z24	X25	Y25	Z25	X26	Y26	Z26	X27	Y27	Z27	X28	Y28	Z28	X29	Y29	Z29	X30	Y30	Z30	X31	Y31	Z31	X32	Y32	Z32	X33	Y33	Z33	X34	Y34	Z34	X35	Y35	Z35	X36	Y36	Z36	X37	Y37	Z37	X38	Y38	Z38	X39	Y39	Z39	X40	Y40	Z40	X41	Y41	Z41	X42	Y42	Z42	X43	Y43	Z43	X44	Y44	Z44	X45	Y45	Z45	X46	Y46	Z46	X47	Y47	Z47	X48	Y48	Z48	X49	Y49	Z49	X50	Y50	Z50	X51	Y51	Z51	

69	0.68000000	560.24552	445.59498	-88.98022	512.38731	329.17438	-104.71077	273.51804	191.95298	-151.05880	224.30078	207.34217	-208.88221	295.93408	60.49974	-133.32718	337.89310	50.71701	-174.30135	823.13569	468.98143	-353.31504	868.85179	378.12408	-295.39888	829.95411	82.33364	-305.22951	781.04104	50.29913	-251.37841	950.54793	37.21674	-308.62812	986.68085	60.55803	-255.04332	429.76899	258.27908	-127.47417	464.90019	371.93067	-62.59394	372.21253	315.09882	-96.06379	830.94091	385.65223	-374.55028	840.19424	265.21255	-375.52725	714.45725	727.77637	-78.14992	701.04231	617.26922	-75.10228	644.25263	600.11642	-42.65263	604.43960	737.35419	-45.74177	590.92147	622.81850	-47.75106	800.69619	766.37267	-385.92879	852.01965	641.71774	-365.50471	706.43660	728.21412	-431.24701	755.05806	597.89774	-400.92522	757.03356	896.58824	-100.83790	580.88730	949.78786	-181.58395	781.64763	924.70883	-342.94298	585.58117	955.66524	-298.55217	577.61398	1399.67529	-223.55499	639.12646	1371.96453	-74.72754	629.20100	1376.39403	-385.75731	708.48582	1359.99781	-210.61271	708.57604	1357.86697	-255.15320	673.43295	1248.06906	-9.90880	628.91552	1040.15079	-54.44618	656.01922	1053.44783	15.01247	744.29469	959.39362	25.73429	808.38075	878.37827	17.39488	780.16784	858.39796	35.90528	628.89566	1225.73596	-451.97735	566.32310	1042.96925	-371.32198	551.93767	1054.16434	-444.73981	570.30201	964.46704	-486.35660	575.83629	832.40082	-493.17258	543.09869	835.92455	-499.45906	670.59496	829.24736	-142.79570	693.69796	844.98842	-330.10299	689.66247	839.85384	-140.31348	696.13209	847.94711	-301.66499	
70	0.69000000	585.84139	442.78927	-87.83461	535.20858	327.75321	-103.82064	292.34364	200.88774	-149.07553	245.07028	221.37356	-206.60663	304.05798	68.04510	-132.67486	344.45018	54.17703	-173.78825	829.63691	469.35666	-353.79220	873.35274	377.52083	-295.21380	830.00276	82.45977	-305.17133	781.12133	50.22469	-251.41289	950.57105	37.39332	-308.70974	986.74725	60.17726	-254.85233	450.16859	260.27983	-126.49902	489.49131	372.26722	-60.98427	394.50010	318.94327	-93.96432	836.92673	385.72600	-374.82294	844.50866	265.21931	-375.56279	731.13475	729.12004	-79.23509	721.01055	618.26501	-74.71745	664.62934	599.57137	-41.88606	620.52772	735.59503	-46.72780	610.78729	620.68632	-47.45261	812.95019	767.15903	-386.51580	861.83729	641.45542	-366.37872	718.25482	731.04513	-432.31943	764.14095	599.47933	-401.90723	769.97261	898.49194	-102.08230	593.92724	951.72956	-181.65000	795.09817	927.41574	-343.41448	599.05280	958.69474	-298.74111	590.13436	1402.37445	-224.63860	651.49217	1374.86181	-75.53671	642.52103	1378.94979	-386.26846	721.05737	1362.54498	-210.97862	721.34978	1360.47929	-255.49717	684.60785	1250.69657	-10.63094	637.78399	1043.91018	-57.10340	664.08185	1056.11156	12.98651	749.15032	959.25250	24.99813	810.45538	875.82911	17.86564	781.12784	856.99430	35.67925	644.02868	1228.40998	-452.58807	582.44361	1045.08374	-372.58158	568.87262	1055.90238	-446.09978	589.08864	966.54165	-487.49149	596.78142	834.53472	-494.09057	563.97017	837.64318	-500.67044	683.74023	831.18352	-143.82373	706.85436	847.88753	-331.05299	702.88474	841.33276	-142.30928	709.91336	850.88602	-303.14320	
71	0.70000000	612.03944	440.25545	-86.75163	559.29834	326.50777	-103.12782	312.65997	209.57152	-147.10539	267.40644	234.74634	-204.27680	314.39495	76.21375	-131.82598	352.84995	58.36542	-173.16447	834.92921	469.37574	-354.62078	877.22453	376.85144	-295.44061	830.02898	82.55207	-305.13529	781.16515	50.19226	-251.44854	950.57185	37.50148	-308.70986	986.81266	59.86592	-254.65745	471.87563	262.42581	-125.70440	515.13491	372.51215	-59.43620	418.28569	322.32308	-91.90140	841.79991	385.56465	-375.32759	847.86851	265.03814	-375.74411	747.51358	730.60744	-79.94184	740.96898	619.50862	-74.02105	685.01451	599.22468	-40.96307	636.45227	733.79941	-47.54776	630.75012	618.66854	-47.10971	824.58992	767.47971	-387.11965	870.68313	640.54485	-367.54699	729.25595	733.76855	-433.21040	772.15800	601.02545	-403.15933	782.41624	900.36491	-103.00774	606.61263	953.61565	-182.03806	808.35245	929.56372	-343.63607	612.37670	961.60378	-299.23857	602.57439	1405.02377	-225.63803	663.53336	1377.62753	-76.27217	655.95049	1381.48671	-386.72628	733.53020	1365.03126	-211.17557	734.06608	1363.04591	-255.67574	695.51562	1253.23530	-11.27696	646.43848	1047.57563	-59.50133	672.03317	1058.76724	11.12665	753.75791	959.26425	24.39676	812.28987	873.51706	18.59686	781.85062	855.91150	35.57139	659.28422	1231.12131	-453.19142	598.38852	1047.26373	-373.98779	585.85917	1057.69485	-447.58700	608.10972	968.69078	-488.70832	618.20681	836.80014	-495.07019	585.33987	839.43171	-501.98168	696.28528	833.11098	-144.68613	719.79794	850.38421	-331.81268	715.61155	842.56649	-144.11639	723.48216	853.48275	-304.43773	
72	0.71000000	638.62963	438.20576	-85.70446	584.41018	325.55191	-102.61574	334.24513	217.81859	-145.17896	290.82665	246.95558	-201.96165	327.46116	84.57596	-130.72912	363.76235	63.18369	-172.41233	839.27972	469.19674	-355.75333	880.58603	376.18671	-296.13883	830.07142	82.62624	-305.13919	781.16770	50.21580	-251.51493	950.56114	37.53277	-308.66894	986.86649	59.60141	-254.48582	494.72371	264.72722	-125.06148	541.63295	372.73912	-57.96780	443.45375	325.18786	-89.92921	845.61878	385.23776	-376.11546	850.30335	264.72549	-376.12533	763.46235	732.27741	-80.27887	760.72094	621.06271	-73.07874	705.22809	599.17636	-39.92742	652.16543	732.09449	-48.20258	650.59372	616.88463	-46.72968	835.59609	767.54224	-387.68842	878.72492	639.30490	-368.82584	739.58242	736.37544	-433.96972	779.37804	602.62807	-404.56895	794.38863	902.13158	-103.53874	618.96888	955.38540	-182.73167	821.37312	931.15803	-343.60467	625.49952	964.35137	-300.00458	614.96519	1407.54754	-226.58772	675.22667	1380.17539	-76.92288	669.51953	1383.94783	-387.15795	745.92118	1367.41321	-211.20133	746.74605	1365.50687	-255.68563	706.10371	1255.58104	-11.82840	654.86944	1050.99232	-61.57602	679.90461	1061.29999	9.46869	758.19568	959.35146	23.94413	813.97291	871.42788	19.55622	782.45265	855.09163	35.62743	674.67801	1233.78042	-453.79124	614.18181	1049.41081	-375.55043	602.86416	1059.47805	-449.21412	627.32142	970.84402	-490.01190	640.08353	839.14482	-496.11926	607.18714	841.20809	-503.39055	708.24673	834.96534	-145.36953	732.52051	852.45748	-332.37131	727.88676	843.47869	-145.63228	736.77788	855.69546	-305.49821	
